<svg width="1920" height="1080" viewBox="0 0 1920 1080" fill="none" xmlns="http://www.w3.org/2000/svg">
<path d="M1962.59 135H-14.9232C-14.9232 135 -154.596 -12.1463 -14.9232 -19.6095C124.75 -27.0726 190.522 48.0675 290.886 38.3061C391.25 28.5448 346.3 -22.8572 451.479 -25.9047C556.658 -28.9521 545.61 25.1327 651.366 28.7375C757.121 32.3422 828.823 -29.2689 904.214 -25.9047C979.604 -22.5404 988.559 6.67016 1064.81 6.83026C1141.05 6.99036 1140.51 -44.1085 1239.07 -47.8119C1380.83 -53.1387 1358.49 56.5129 1427.85 44.6013C1497.21 32.6897 1449.53 -5.08577 1516.69 -10.0408C1583.85 -14.9958 1605.7 10.557 1673.86 14.1327C1742.02 17.7084 1844.66 -27.972 1962.59 -19.6095C2080.52 -11.2469 1962.59 135 1962.59 135Z" fill="#374246" stroke="#2C3639"/>
<path d="M1947.59 226H-29.9232C-29.9232 226 -169.596 79.6578 -29.9232 72.2354C109.75 64.813 175.522 139.543 275.886 129.835C376.25 120.127 331.3 69.0054 436.479 65.9746C541.658 62.9438 530.61 116.733 636.366 120.318C742.121 123.903 813.823 62.6287 889.214 65.9746C964.604 69.3205 973.559 98.3714 1049.81 98.5306C1126.05 98.6899 1125.51 47.8702 1224.07 44.1871C1365.83 38.8894 1343.49 147.942 1412.85 136.095C1482.21 124.249 1434.53 86.6797 1501.69 81.7518C1568.85 76.8238 1590.7 102.237 1658.86 105.793C1727.02 109.349 1829.66 63.9185 1947.59 72.2354C2065.52 80.5523 1947.59 226 1947.59 226Z" fill="#4D5B5C" stroke="#4D5B5C"/>
<path d="M1947.59 317H-29.9232C-29.9232 317 -169.596 170.658 -29.9232 163.235C109.75 155.813 175.522 230.543 275.886 220.835C376.25 211.127 331.3 160.005 436.479 156.975C541.658 153.944 530.61 207.733 636.366 211.318C742.121 214.903 813.823 153.629 889.214 156.975C964.604 160.32 973.559 189.371 1049.81 189.531C1126.05 189.69 1125.51 138.87 1224.07 135.187C1365.83 129.889 1343.49 238.942 1412.85 227.095C1482.21 215.249 1434.53 177.68 1501.69 172.752C1568.85 167.824 1590.7 193.237 1658.86 196.793C1727.02 200.349 1829.66 154.919 1947.59 163.235C2065.52 171.552 1947.59 317 1947.59 317Z" fill="#A27B5C" stroke="#A27B5C"/>
<path d="M1962.59 388H-14.9232C-14.9232 388 -154.596 240.854 -14.9232 233.391C124.75 225.927 190.522 301.067 290.886 291.306C391.25 281.545 346.3 230.143 451.479 227.095C556.658 224.048 545.61 278.133 651.366 281.737C757.121 285.342 828.823 223.731 904.214 227.095C979.604 230.46 988.559 259.67 1064.81 259.83C1141.05 259.99 1140.51 208.891 1239.07 205.188C1380.83 199.861 1358.49 309.513 1427.85 297.601C1497.21 285.69 1449.53 247.914 1516.69 242.959C1583.85 238.004 1605.7 263.557 1673.86 267.133C1742.02 270.708 1844.66 225.028 1962.59 233.391C2080.52 241.753 1962.59 388 1962.59 388Z" fill="#C7C3B7" stroke="#C7C3B7"/>
<path d="M1901.59 298H-75.9232C-75.9232 298 -215.596 151.658 -75.9232 144.235C63.7496 136.813 129.522 211.543 229.886 201.835C330.25 192.127 285.3 141.005 390.479 137.975C495.658 134.944 484.61 188.733 590.366 192.318C696.121 195.903 767.823 134.629 843.214 137.975C918.604 141.32 927.559 170.371 1003.81 170.531C1080.05 170.69 1079.51 119.87 1178.07 116.187C1319.83 110.889 1297.49 219.942 1366.85 208.095C1436.21 196.249 1388.53 158.68 1455.69 153.752C1522.85 148.824 1544.7 174.237 1612.86 177.793C1681.02 181.349 1783.66 135.919 1901.59 144.235C2019.52 152.552 1901.59 298 1901.59 298Z" fill="#374246" stroke="#2C3639"/>
<path d="M1886.59 390H-90.9232C-90.9232 390 -230.596 242.854 -90.9232 235.391C48.7496 227.927 114.522 303.067 214.886 293.306C315.25 283.545 270.3 232.143 375.479 229.095C480.658 226.048 469.61 280.133 575.366 283.737C681.121 287.342 752.823 225.731 828.214 229.095C903.604 232.46 912.559 261.67 988.806 261.83C1065.05 261.99 1064.51 210.891 1163.07 207.188C1304.83 201.861 1282.49 311.513 1351.85 299.601C1421.21 287.69 1373.53 249.914 1440.69 244.959C1507.85 240.004 1529.7 265.557 1597.86 269.133C1666.02 272.708 1768.66 227.028 1886.59 235.391C2004.52 243.753 1886.59 390 1886.59 390Z" fill="#4D5B5C" stroke="#4D5B5C"/>
<path d="M1886.59 481H-90.9232C-90.9232 481 -230.596 333.854 -90.9232 326.391C48.7496 318.927 114.522 394.067 214.886 384.306C315.25 374.545 270.3 323.143 375.479 320.095C480.658 317.048 469.61 371.133 575.366 374.737C681.121 378.342 752.823 316.731 828.214 320.095C903.604 323.46 912.559 352.67 988.806 352.83C1065.05 352.99 1064.51 301.891 1163.07 298.188C1304.83 292.861 1282.49 402.513 1351.85 390.601C1421.21 378.69 1373.53 340.914 1440.69 335.959C1507.85 331.004 1529.7 356.557 1597.86 360.133C1666.02 363.708 1768.66 318.028 1886.59 326.391C2004.52 334.753 1886.59 481 1886.59 481Z" fill="#A27B5C" stroke="#A27B5C"/>
<path d="M1901.59 551H-75.9232C-75.9232 551 -215.596 404.658 -75.9232 397.235C63.7496 389.813 129.522 464.543 229.886 454.835C330.25 445.127 285.3 394.005 390.479 390.975C495.658 387.944 484.61 441.733 590.366 445.318C696.121 448.903 767.823 387.629 843.214 390.975C918.604 394.32 927.559 423.371 1003.81 423.531C1080.05 423.69 1079.51 372.87 1178.07 369.187C1319.83 363.889 1297.49 472.942 1366.85 461.095C1436.21 449.249 1388.53 411.68 1455.69 406.752C1522.85 401.824 1544.7 427.237 1612.86 430.793C1681.02 434.349 1783.66 388.919 1901.59 397.235C2019.52 405.552 1901.59 551 1901.59 551Z" fill="#C7C3B7" stroke="#C7C3B7"/>
<path d="M1934.59 647H-42.9232C-42.9232 647 -182.596 500.658 -42.9232 493.235C96.7496 485.813 162.522 560.543 262.886 550.835C363.25 541.127 318.3 490.005 423.479 486.975C528.658 483.944 517.61 537.733 623.366 541.318C729.121 544.903 800.823 483.629 876.214 486.975C951.604 490.32 960.559 519.371 1036.81 519.531C1113.05 519.69 1112.51 468.87 1211.07 465.187C1352.83 459.889 1330.49 568.942 1399.85 557.095C1469.21 545.249 1421.53 507.68 1488.69 502.752C1555.85 497.824 1577.7 523.237 1645.86 526.793C1714.02 530.349 1816.66 484.919 1934.59 493.235C2052.52 501.552 1934.59 647 1934.59 647Z" fill="#374246" stroke="#2C3639"/>
<path d="M1919.59 739H-57.9232C-57.9232 739 -197.596 592.658 -57.9232 585.235C81.7496 577.813 147.522 652.543 247.886 642.835C348.25 633.127 303.3 582.005 408.479 578.975C513.658 575.944 502.61 629.733 608.366 633.318C714.121 636.903 785.823 575.629 861.214 578.975C936.604 582.32 945.559 611.371 1021.81 611.531C1098.05 611.69 1097.51 560.87 1196.07 557.187C1337.83 551.889 1315.49 660.942 1384.85 649.095C1454.21 637.249 1406.53 599.68 1473.69 594.752C1540.85 589.824 1562.7 615.237 1630.86 618.793C1699.02 622.349 1801.66 576.919 1919.59 585.235C2037.52 593.552 1919.59 739 1919.59 739Z" fill="#4D5B5C" stroke="#4D5B5C"/>
<path d="M1919.59 830H-57.9232C-57.9232 830 -197.596 682.854 -57.9232 675.391C81.7496 667.927 147.522 743.067 247.886 733.306C348.25 723.545 303.3 672.143 408.479 669.095C513.658 666.048 502.61 720.133 608.366 723.737C714.121 727.342 785.823 665.731 861.214 669.095C936.604 672.46 945.559 701.67 1021.81 701.83C1098.05 701.99 1097.51 650.891 1196.07 647.188C1337.83 641.861 1315.49 751.513 1384.85 739.601C1454.21 727.69 1406.53 689.914 1473.69 684.959C1540.85 680.004 1562.7 705.557 1630.86 709.133C1699.02 712.708 1801.66 667.028 1919.59 675.391C2037.52 683.753 1919.59 830 1919.59 830Z" fill="#A27B5C" stroke="#A27B5C"/>
<path d="M1934.59 901H-42.9232C-42.9232 901 -182.596 753.854 -42.9232 746.391C96.7496 738.927 162.522 814.067 262.886 804.306C363.25 794.545 318.3 743.143 423.479 740.095C528.658 737.048 517.61 791.133 623.366 794.737C729.121 798.342 800.823 736.731 876.214 740.095C951.604 743.46 960.559 772.67 1036.81 772.83C1113.05 772.99 1112.51 721.891 1211.07 718.188C1352.83 712.861 1330.49 822.513 1399.85 810.601C1469.21 798.69 1421.53 760.914 1488.69 755.959C1555.85 751.004 1577.7 776.557 1645.86 780.133C1714.02 783.708 1816.66 738.028 1934.59 746.391C2052.52 754.753 1934.59 901 1934.59 901Z" fill="#C7C3B7" stroke="#C7C3B7"/>
<path d="M1934.59 997H-42.9232C-42.9232 997 -182.596 849.854 -42.9232 842.391C96.7496 834.927 162.522 910.067 262.886 900.306C363.25 890.545 318.3 839.143 423.479 836.095C528.658 833.048 517.61 887.133 623.366 890.737C729.121 894.342 800.823 832.731 876.214 836.095C951.604 839.46 960.559 868.67 1036.81 868.83C1113.05 868.99 1112.51 817.891 1211.07 814.188C1352.83 808.861 1330.49 918.513 1399.85 906.601C1469.21 894.69 1421.53 856.914 1488.69 851.959C1555.85 847.004 1577.7 872.557 1645.86 876.133C1714.02 879.708 1816.66 834.028 1934.59 842.391C2052.52 850.753 1934.59 997 1934.59 997Z" fill="#374246" stroke="#2C3639"/>
<path d="M1919.59 1089H-57.9232C-57.9232 1089 -197.596 941.854 -57.9232 934.391C81.7496 926.927 147.522 1002.07 247.886 992.306C348.25 982.545 303.3 931.143 408.479 928.095C513.658 925.048 502.61 979.133 608.366 982.737C714.121 986.342 785.823 924.731 861.214 928.095C936.604 931.46 945.559 960.67 1021.81 960.83C1098.05 960.99 1097.51 909.891 1196.07 906.188C1337.83 900.861 1315.49 1010.51 1384.85 998.601C1454.21 986.69 1406.53 948.914 1473.69 943.959C1540.85 939.004 1562.7 964.557 1630.86 968.133C1699.02 971.708 1801.66 926.028 1919.59 934.391C2037.52 942.753 1919.59 1089 1919.59 1089Z" fill="#4D5B5C" stroke="#4D5B5C"/>
<path d="M1919.59 1179H-57.9232C-57.9232 1179 -197.596 1032.66 -57.9232 1025.24C81.7496 1017.81 147.522 1092.54 247.886 1082.83C348.25 1073.13 303.3 1022.01 408.479 1018.97C513.658 1015.94 502.61 1069.73 608.366 1073.32C714.121 1076.9 785.823 1015.63 861.214 1018.97C936.604 1022.32 945.559 1051.37 1021.81 1051.53C1098.05 1051.69 1097.51 1000.87 1196.07 997.187C1337.83 991.889 1315.49 1100.94 1384.85 1089.1C1454.21 1077.25 1406.53 1039.68 1473.69 1034.75C1540.85 1029.82 1562.7 1055.24 1630.86 1058.79C1699.02 1062.35 1801.66 1016.92 1919.59 1025.24C2037.52 1033.55 1919.59 1179 1919.59 1179Z" fill="#A27B5C" stroke="#A27B5C"/>
<path d="M1934.59 1250H-42.9232C-42.9232 1250 -182.596 1102.85 -42.9232 1095.39C96.7496 1087.93 162.522 1163.07 262.886 1153.31C363.25 1143.54 318.3 1092.14 423.479 1089.1C528.658 1086.05 517.61 1140.13 623.366 1143.74C729.121 1147.34 800.823 1085.73 876.214 1089.1C951.604 1092.46 960.559 1121.67 1036.81 1121.83C1113.05 1121.99 1112.51 1070.89 1211.07 1067.19C1352.83 1061.86 1330.49 1171.51 1399.85 1159.6C1469.21 1147.69 1421.53 1109.91 1488.69 1104.96C1555.85 1100 1577.7 1125.56 1645.86 1129.13C1714.02 1132.71 1816.66 1087.03 1934.59 1095.39C2052.52 1103.75 1934.59 1250 1934.59 1250Z" fill="#C7C3B7" stroke="#C7C3B7"/>
</svg>
