<?xml version="1.0" encoding="UTF-8"?>
<svg version="1.1" xmlns="http://www.w3.org/2000/svg" width="32" height="32">
<path d="M0 0 C4.02874601 1.34291534 4.66956988 3.20312482 6.8125 6.8125 C7.78123047 8.39998047 7.78123047 8.39998047 8.76953125 10.01953125 C10 13 10 13 9.19921875 15.38671875 C8.80347656 15.91910156 8.40773438 16.45148437 8 17 C9.65 17.33 11.3 17.66 13 18 C13 19.65 13 21.3 13 23 C11.68 23 10.36 23 9 23 C8.67 23.99 8.34 24.98 8 26 C7.34 26 6.68 26 6 26 C6 25.01 6 24.02 6 23 C0.06 23 -5.88 23 -12 23 C-12 23.99 -12 24.98 -12 26 C-12.99 25.67 -13.98 25.34 -15 25 C-15 24.34 -15 23.68 -15 23 C-16.32 23 -17.64 23 -19 23 C-19 21.35 -19 19.7 -19 18 C-11.41 18 -3.82 18 4 18 C3.01 16.494375 2.02 14.98875 1 13.4375 C-1.7414706 8.91342997 -2.68000461 6.21336866 -2 1 C-1.34 0.67 -0.68 0.34 0 0 Z " fill="#0079FF" transform="translate(19,3)"/>
<path d="M0 0 C1.98 0 3.96 0 6 0 C6 5.61 6 11.22 6 17 C4.02 17 2.04 17 0 17 C0 11.39 0 5.78 0 0 Z " fill="#007AFF" transform="translate(10,3)"/>
<path d="M0 0 C1.98 0 3.96 0 6 0 C6 5.61 6 11.22 6 17 C4.02 17 2.04 17 0 17 C0 11.39 0 5.78 0 0 Z " fill="#0079FF" transform="translate(3,3)"/>
</svg>
