<svg xmlns="http://www.w3.org/2000/svg" width="512" height="512"><path d="m317.563 47.063 2.128.222c8.447 2.615 11.197 8.963 15.247 16.34q.981 1.749 1.966 3.496 2.044 3.627 4.072 7.266c3.136 5.613 6.365 11.173 9.587 16.738l1.882 3.265c4.14 7.176 8.31 14.334 12.493 21.485 5.421 9.27 10.764 18.583 16.081 27.913a2811 2811 0 0 0 15.764 27.279c6.155 10.524 12.24 21.087 18.326 31.65q4.693 8.144 9.391 16.283l3.75 6.5 1.875 3.25 5.625 9.75 1.879 3.253q1.861 3.23 3.713 6.466c2.891 5.044 5.81 10.062 8.855 15.014a767 767 0 0 1 3.19 5.251 381 381 0 0 0 4.043 6.54c4.202 7.012 6.043 12.787 4.57 20.976-2.318 4.998-5.295 7.21-10 9.938l-3.125 1.84-1.743.998c-2.8 1.607-5.586 3.236-8.374 4.863l-3.27 1.908L433 317l2.42.025q11.322.116 22.642.263 5.82.076 11.639.134 5.621.056 11.243.136 2.139.029 4.278.045a886 886 0 0 1 6.017.078l3.452.04c6.781.571 10.863 2.07 15.309 7.279 2.405 3.608 2.296 6.237 2.29 10.406l.02 2.277c.02 2.487.024 4.974.026 7.462l.02 5.19q.017 5.444.015 10.887c0 4.644.027 9.287.061 13.93.022 3.576.026 7.15.025 10.725q.005 2.568.027 5.135c.02 2.399.014 4.796.002 7.194l.034 2.13c-.064 5.003-1.407 7.802-4.52 11.664-6.52 5.49-14.255 4.51-22.34 4.39q-2.238-.01-4.476-.017c-3.908-.015-7.816-.054-11.723-.098-3.996-.041-7.991-.06-11.986-.08-7.826-.042-15.65-.11-23.475-.195l.063 3.377c.073 4.158.119 8.316.157 12.474q.03 2.692.082 5.386c.049 2.589.071 5.177.089 7.767l.062 2.41c.002 5.671-1.218 8.908-4.453 13.586-4.046 3.468-8.79 4.134-14 4-5.88-1.666-8.618-4.126-12-9-3.235-12.94-1-26.663-1-40H109v37c-4.19 8.382-4.19 8.382-9 11-4.606 1.368-8.133 1.246-12.75-.062-4.268-2.545-6.997-5.433-9.25-9.938a230 230 0 0 1-.098-8.508l.005-2.547c.005-2.69.018-5.38.03-8.07q.008-2.732.014-5.465.017-6.705.049-13.41l-2.496.027q-11.675.12-23.348.18c-4.001.021-8.002.05-12.002.095q-5.797.063-11.594.078-2.205.01-4.412.043C9.498 416.63 9.498 416.63 4 412c-3.654-4.543-4.584-8.048-4.518-13.746l-.02-2.279a590 590 0 0 1 .007-7.413l-.012-5.177q-.008-5.416.022-10.833c.022-4.62.01-9.24-.015-13.86-.014-3.562-.01-7.124 0-10.686q.005-2.555-.01-5.11c-.01-2.384.006-4.766.028-7.15l-.024-2.116C-.457 328.657.903 325.84 4 322c5.634-4.19 11.343-4.145 18.145-4.098l2.332.005c2.445.005 4.89.018 7.336.03q2.494.008 4.99.014 6.099.017 12.197.049l-.008-3.85a78882 78882 0 0 1-.16-103.909c-.012-11.97-.036-23.94-.063-35.912q-.043-18.427-.051-36.856a8502 8502 0 0 0-.042-22.737c-.018-5.815-.02-11.63-.015-17.444q-.001-3.574-.019-7.15c-.015-3.255-.01-6.51-.003-9.765l-.026-2.853c.041-6.1.493-12.336 4.804-17.085 4.806-4.179 8.752-4.587 14.85-4.58l2.26-.008c2.506-.01 5.012-.01 7.517-.012l5.381-.015q7.317-.019 14.635-.024 4.57-.005 9.14-.012 14.297-.02 28.593-.027 16.509-.007 33.018-.05 12.756-.034 25.513-.034 7.622 0 15.242-.025 7.17-.023 14.339-.01 2.63.002 5.26-.013c2.396-.013 4.79-.007 7.186.004l2.099-.025c4.569.047 7.665 1.006 11.55 3.392 4.2 4.653 5.137 7.427 5.563 13.625l.253 3.602L256 79l1.79-1.047q9.322-5.45 18.654-10.882 3.567-2.076 7.132-4.158c3.492-2.038 6.99-4.07 10.486-6.1l3.293-1.925c14.74-8.54 14.74-8.54 20.207-7.825M309 84a111 111 0 0 0-7 4q-2.288 1.38-4.578 2.758l-2.576 1.552a660 660 0 0 1-9.58 5.557l-1.754 1.003q-4.341 2.481-8.688 4.95l-3.246 1.86-2.893 1.648c-2.745 1.71-5.202 3.604-7.685 5.672l1.66 2.805c7.216 12.216 14.304 24.505 21.384 36.8q4.726 8.199 9.456 16.395l3.75 6.5 1.875 3.25 11.248 19.496a25831 25831 0 0 1 9.412 16.324 5512 5512 0 0 0 18.152 31.305c5.417 9.262 10.757 18.567 16.068 27.89a2763 2763 0 0 0 16.743 28.95l1.654 2.824 1.453 2.475A76 76 0 0 1 376 312c3.882-.584 6.638-1.731 10-3.738l2.91-1.72 3.09-1.854 6.438-3.81 3.292-1.952c5.063-2.982 10.164-5.895 15.27-8.801l2.75-1.568L426 285c-8.471-15.6-17.054-31.148-26.112-46.417-3.741-6.311-7.412-12.663-11.075-19.02l-5.857-10.168Q378.23 201.196 373.5 193l-3.75-6.5-1.875-3.25-22.501-39.002-3.738-6.478q-4.785-8.291-9.562-16.586-4.682-8.13-9.379-16.25a3599 3599 0 0 1-3.289-5.704 2385 2385 0 0 0-4.219-7.293l-1.22-2.129c-1.884-3.493-1.884-3.493-4.967-5.808M80 87v231h57V87zm88 0v231h56V87zm87 78v153h89c-8.501-15.585-17.054-31.147-26.112-46.417-3.741-6.311-7.412-12.663-11.075-19.02l-5.857-10.168q-5.66-9.82-11.325-19.634-4.731-8.197-9.451-16.402c-6.148-10.683-12.315-21.354-18.555-31.984l-1.678-2.876-1.533-2.6-1.345-2.292L256 165zM30 349v36h452v-36z"/></svg>